<svg xmlns="http://www.w3.org/2000/svg" xmlns:xlink="http://www.w3.org/1999/xlink" xmlns:fi="http://pattern.flaticon.com/" x="0" y="0" width="700" height="350" viewBox="0 0 700 350"><rect x="0px" y="0px" width="100%" height="100%" opacity="1" fill="#ffffff"/><defs><path d="M43.203,28.166c-0.533-1.214-6.891,0.37-12.23,2.462c0.218-0.349,0.439-0.714,0.666-1.097   c4.254-7.184,8.518-17.621,6.766-18.658c-1.499-0.888-6.919,5.398-11.117,11.732C27.124,12.546,25.166,0,22.774,0   s-4.35,12.546-4.512,22.605C14.063,16.271,8.644,9.985,7.144,10.873C5.393,11.91,9.656,22.348,13.91,29.531   c0.227,0.383,0.448,0.748,0.666,1.097c-5.34-2.093-11.698-3.677-12.23-2.462c-0.599,1.365,6.397,5.754,11.999,8.211   c0.521,0.229,1.012,0.432,1.474,0.613c-2.889,1.022-5.704,2.431-5.514,3.104c0.235,0.833,4.99,0.225,8.406-0.738   c1.105-0.312,1.926-0.621,2.545-0.927v5.599c0,0.841,0.684,1.521,1.524,1.521c0.84,0,1.524-0.681,1.524-1.521v-5.6   c0.618,0.307,1.434,0.616,2.54,0.928c3.416,0.961,8.168,1.571,8.402,0.738c0.189-0.672-2.625-2.08-5.516-3.104   c0.462-0.182,0.952-0.385,1.474-0.613C36.806,33.92,43.802,29.531,43.203,28.166z" transform="matrix(1.3172627687454224 0 0 1.3172627687454224 167.0000009848918 129)" id="L1_62"/><path d="M43.203,28.166c-0.533-1.214-6.891,0.37-12.23,2.462c0.218-0.349,0.439-0.714,0.666-1.097   c4.254-7.184,8.518-17.621,6.766-18.658c-1.499-0.888-6.919,5.398-11.117,11.732C27.124,12.546,25.166,0,22.774,0   s-4.35,12.546-4.512,22.605C14.063,16.271,8.644,9.985,7.144,10.873C5.393,11.91,9.656,22.348,13.91,29.531   c0.227,0.383,0.448,0.748,0.666,1.097c-5.34-2.093-11.698-3.677-12.23-2.462c-0.599,1.365,6.397,5.754,11.999,8.211   c0.521,0.229,1.012,0.432,1.474,0.613c-2.889,1.022-5.704,2.431-5.514,3.104c0.235,0.833,4.99,0.225,8.406-0.738   c1.105-0.312,1.926-0.621,2.545-0.927v5.599c0,0.841,0.684,1.521,1.524,1.521c0.84,0,1.524-0.681,1.524-1.521v-5.6   c0.618,0.307,1.434,0.616,2.54,0.928c3.416,0.961,8.168,1.571,8.402,0.738c0.189-0.672-2.625-2.08-5.516-3.104   c0.462-0.182,0.952-0.385,1.474-0.613C36.806,33.92,43.802,29.531,43.203,28.166z" transform="matrix(1.3172627687454224 0 0 1.3172627687454224 166.00000084419298 313)" id="L1_63"/><path d="M43.203,28.166c-0.533-1.214-6.891,0.37-12.23,2.462c0.218-0.349,0.439-0.714,0.666-1.097   c4.254-7.184,8.518-17.621,6.766-18.658c-1.499-0.888-6.919,5.398-11.117,11.732C27.124,12.546,25.166,0,22.774,0   s-4.35,12.546-4.512,22.605C14.063,16.271,8.644,9.985,7.144,10.873C5.393,11.91,9.656,22.348,13.91,29.531   c0.227,0.383,0.448,0.748,0.666,1.097c-5.34-2.093-11.698-3.677-12.23-2.462c-0.599,1.365,6.397,5.754,11.999,8.211   c0.521,0.229,1.012,0.432,1.474,0.613c-2.889,1.022-5.704,2.431-5.514,3.104c0.235,0.833,4.99,0.225,8.406-0.738   c1.105-0.312,1.926-0.621,2.545-0.927v5.599c0,0.841,0.684,1.521,1.524,1.521c0.84,0,1.524-0.681,1.524-1.521v-5.6   c0.618,0.307,1.434,0.616,2.54,0.928c3.416,0.961,8.168,1.571,8.402,0.738c0.189-0.672-2.625-2.08-5.516-3.104   c0.462-0.182,0.952-0.385,1.474-0.613C36.806,33.92,43.802,29.531,43.203,28.166z" transform="matrix(1.3172627687454224 0 0 1.3172627687454224 -9.999999015108187 20)" id="L1_64"/><path d="M43.203,28.166c-0.533-1.214-6.891,0.37-12.23,2.462c0.218-0.349,0.439-0.714,0.666-1.097   c4.254-7.184,8.518-17.621,6.766-18.658c-1.499-0.888-6.919,5.398-11.117,11.732C27.124,12.546,25.166,0,22.774,0   s-4.35,12.546-4.512,22.605C14.063,16.271,8.644,9.985,7.144,10.873C5.393,11.91,9.656,22.348,13.91,29.531   c0.227,0.383,0.448,0.748,0.666,1.097c-5.34-2.093-11.698-3.677-12.23-2.462c-0.599,1.365,6.397,5.754,11.999,8.211   c0.521,0.229,1.012,0.432,1.474,0.613c-2.889,1.022-5.704,2.431-5.514,3.104c0.235,0.833,4.99,0.225,8.406-0.738   c1.105-0.312,1.926-0.621,2.545-0.927v5.599c0,0.841,0.684,1.521,1.524,1.521c0.84,0,1.524-0.681,1.524-1.521v-5.6   c0.618,0.307,1.434,0.616,2.54,0.928c3.416,0.961,8.168,1.571,8.402,0.738c0.189-0.672-2.625-2.08-5.516-3.104   c0.462-0.182,0.952-0.385,1.474-0.613C36.806,33.92,43.802,29.531,43.203,28.166z" transform="matrix(1.3172627687454224 0 0 1.3172627687454224 -13.99999971860234 201)" id="L1_65"/></defs><g fi:class="KUsePattern"><pattern id="pattern_L1_62" width="350" height="350" patternUnits="userSpaceOnUse"><use xlink:href="#L1_62" x="-350" y="-350"/><use xlink:href="#L1_62" x="0" y="-350"/><use xlink:href="#L1_62" x="350" y="-350"/><use xlink:href="#L1_62" x="-350" y="0"/><use xlink:href="#L1_62" x="0" y="0"/><use xlink:href="#L1_62" x="350" y="0"/><use xlink:href="#L1_62" x="-350" y="350"/><use xlink:href="#L1_62" x="0" y="350"/><use xlink:href="#L1_62" x="350" y="350"/></pattern><rect x="0" y="0" width="100%" height="100%" fill="url(#pattern_L1_62)"/></g><g fi:class="KUsePattern"><pattern id="pattern_L1_63" width="350" height="350" patternUnits="userSpaceOnUse"><use xlink:href="#L1_63" x="-350" y="-350"/><use xlink:href="#L1_63" x="0" y="-350"/><use xlink:href="#L1_63" x="350" y="-350"/><use xlink:href="#L1_63" x="-350" y="0"/><use xlink:href="#L1_63" x="0" y="0"/><use xlink:href="#L1_63" x="350" y="0"/><use xlink:href="#L1_63" x="-350" y="350"/><use xlink:href="#L1_63" x="0" y="350"/><use xlink:href="#L1_63" x="350" y="350"/></pattern><rect x="0" y="0" width="100%" height="100%" fill="url(#pattern_L1_63)"/></g><g fi:class="KUsePattern"><pattern id="pattern_L1_64" width="350" height="350" patternUnits="userSpaceOnUse"><use xlink:href="#L1_64" x="-350" y="-350"/><use xlink:href="#L1_64" x="0" y="-350"/><use xlink:href="#L1_64" x="350" y="-350"/><use xlink:href="#L1_64" x="-350" y="0"/><use xlink:href="#L1_64" x="0" y="0"/><use xlink:href="#L1_64" x="350" y="0"/><use xlink:href="#L1_64" x="-350" y="350"/><use xlink:href="#L1_64" x="0" y="350"/><use xlink:href="#L1_64" x="350" y="350"/></pattern><rect x="0" y="0" width="100%" height="100%" fill="url(#pattern_L1_64)"/></g><g fi:class="KUsePattern"><pattern id="pattern_L1_65" width="350" height="350" patternUnits="userSpaceOnUse"><use xlink:href="#L1_65" x="-350" y="-350"/><use xlink:href="#L1_65" x="0" y="-350"/><use xlink:href="#L1_65" x="350" y="-350"/><use xlink:href="#L1_65" x="-350" y="0"/><use xlink:href="#L1_65" x="0" y="0"/><use xlink:href="#L1_65" x="350" y="0"/><use xlink:href="#L1_65" x="-350" y="350"/><use xlink:href="#L1_65" x="0" y="350"/><use xlink:href="#L1_65" x="350" y="350"/></pattern><rect x="0" y="0" width="100%" height="100%" fill="url(#pattern_L1_65)"/></g></svg>