<svg xmlns="http://www.w3.org/2000/svg" xmlns:xlink="http://www.w3.org/1999/xlink" xmlns:fi="http://pattern.flaticon.com/" x="0" y="0" width="700" height="350" viewBox="0 0 700 350"><rect x="0px" y="0px" width="100%" height="100%" opacity="1" fill="#7b7b7b"/><defs><path d="M41.854,13.28H31.477V3.921c0-1.898-1.539-3.436-3.437-3.436H17.203c-1.898,0-3.437,1.538-3.437,3.436v9.359H3.437   C1.539,13.28,0,14.819,0,16.717v10.836c0,1.898,1.539,3.437,3.437,3.437h10.33v10.378c0,1.897,1.539,3.437,3.437,3.437h10.837   c1.898,0,3.436-1.539,3.436-3.437V30.989h10.377c1.897,0,3.437-1.539,3.437-3.437V16.716C45.29,14.818,43.751,13.28,41.854,13.28z    M25.751,27.171c-0.19,0.082-0.37,0.158-0.539,0.224c1.056,0.374,2.084,0.888,2.015,1.134c-0.086,0.305-1.815,0.081-3.063-0.27   c-0.404-0.114-0.701-0.228-0.923-0.338v2.045c0,0.307-0.247,0.556-0.554,0.556s-0.553-0.249-0.553-0.556v-2.047   c-0.222,0.111-0.534,0.225-0.938,0.338c-1.248,0.352-2.988,0.576-3.074,0.271c-0.069-0.246,0.958-0.76,2.013-1.133   c-0.169-0.065-0.349-0.142-0.54-0.224c-2.045-0.897-4.602-2.5-4.384-3c0.195-0.443,2.517,0.136,4.467,0.899   c-0.079-0.127-0.16-0.261-0.243-0.399c-1.554-2.625-3.111-6.437-2.471-6.815c0.548-0.324,2.527,1.971,4.061,4.285   c0.059-3.674,0.774-8.256,1.648-8.256s1.59,4.583,1.648,8.256c1.533-2.314,3.513-4.609,4.06-4.285   c0.64,0.379-0.917,4.191-2.471,6.815c-0.083,0.14-0.164,0.272-0.243,0.399c1.951-0.764,4.273-1.343,4.468-0.899   C30.354,24.671,27.798,26.273,25.751,27.171z" transform="matrix(1.3247957229614258 0 0 1.3247957229614258 238 -3.000004245103412)" id="L1_1"/><path d="M41.854,13.28H31.477V3.921c0-1.898-1.539-3.436-3.437-3.436H17.203c-1.898,0-3.437,1.538-3.437,3.436v9.359H3.437   C1.539,13.28,0,14.819,0,16.717v10.836c0,1.898,1.539,3.437,3.437,3.437h10.33v10.378c0,1.897,1.539,3.437,3.437,3.437h10.837   c1.898,0,3.436-1.539,3.436-3.437V30.989h10.377c1.897,0,3.437-1.539,3.437-3.437V16.716C45.29,14.818,43.751,13.28,41.854,13.28z    M25.751,27.171c-0.19,0.082-0.37,0.158-0.539,0.224c1.056,0.374,2.084,0.888,2.015,1.134c-0.086,0.305-1.815,0.081-3.063-0.27   c-0.404-0.114-0.701-0.228-0.923-0.338v2.045c0,0.307-0.247,0.556-0.554,0.556s-0.553-0.249-0.553-0.556v-2.047   c-0.222,0.111-0.534,0.225-0.938,0.338c-1.248,0.352-2.988,0.576-3.074,0.271c-0.069-0.246,0.958-0.76,2.013-1.133   c-0.169-0.065-0.349-0.142-0.54-0.224c-2.045-0.897-4.602-2.5-4.384-3c0.195-0.443,2.517,0.136,4.467,0.899   c-0.079-0.127-0.16-0.261-0.243-0.399c-1.554-2.625-3.111-6.437-2.471-6.815c0.548-0.324,2.527,1.971,4.061,4.285   c0.059-3.674,0.774-8.256,1.648-8.256s1.59,4.583,1.648,8.256c1.533-2.314,3.513-4.609,4.06-4.285   c0.64,0.379-0.917,4.191-2.471,6.815c-0.083,0.14-0.164,0.272-0.243,0.399c1.951-0.764,4.273-1.343,4.468-0.899   C30.354,24.671,27.798,26.273,25.751,27.171z" transform="matrix(1.3247957229614258 0 0 1.3247957229614258 121 255.99999696778332)" id="L1_2"/><g transform="matrix(1.3128241300582886 0 0 1.3128241300582886 0 253.00000176282538)" id="L1_3"><circle cx="31" cy="9" r="4"/><path d="M42.694,33.609h-2.243c0.935-0.762,1.342-2.041,0.973-3.232l-4.147-13.383c-0.491-1.587-2.178-2.477-3.764-1.985    c-0.496,0.154-0.887,0.462-1.262,0.77c-0.084,0.069-9.72,8.311-9.826,8.452l-1.157-1.647c0.173-0.024,0.388-0.075,0.664-0.167    c0.852-0.283,1.935-0.83,1.866-1.038c-0.056-0.168-0.846-0.063-1.597,0.132c0.071-0.103,0.145-0.215,0.222-0.337    c0.825-1.31,1.667-3.223,1.349-3.424c-0.284-0.179-1.391,1.055-2.213,2.252c-0.004-0.104-0.009-0.212-0.016-0.324    c-0.128-2.109-0.717-4.902-1.231-4.871c-0.44,0.027-0.684,2.114-0.664,4.037c-1.462-2.085-3.654-4.436-4.155-4.096    c-0.501,0.339,0.87,3.247,2.264,5.377c-1.779-0.731-3.808-1.279-3.996-0.88c-0.22,0.466,2.155,2.048,4.067,2.95    c0.102,0.048,0.2,0.093,0.295,0.135c-1.416,0.32-2.973,0.89-2.913,1.221c0.068,0.371,2.158,0.297,3.68,0.018    c0.142-0.027,0.273-0.054,0.396-0.082c-0.46,0.625-0.85,1.319-0.715,1.433c0.167,0.142,1.078-0.662,1.657-1.348    c0.188-0.223,0.315-0.405,0.402-0.557l1.398,1.991c-0.243,0.793-0.088,1.688,0.491,2.366c0.496,0.58,1.199,0.877,1.906,0.877    c0.577,0,1.156-0.198,1.628-0.603c1.626-1.391,6.505-5.564,6.505-5.564l2.366,7.631c0,0-5.646,2.847-5.728,2.898    c-1.439,0.905-2.093,2.617-1.623,4.252c0.47,1.637,1.928,2.748,3.639,2.748h11.482c1.66,0,3.008-1.341,3.008-3.002    C45.702,34.951,44.354,33.609,42.694,33.609z"/><path d="M18.775,35.281c-0.308,0-0.625,0.015-0.905,0.041v-0.556c0.12,0.058,0.27,0.115,0.477,0.173    c0.641,0.182,1.532,0.295,1.576,0.139c0.036-0.125-0.492-0.39-1.034-0.582c0.086-0.033,0.179-0.071,0.276-0.114    c1.05-0.461,2.363-1.284,2.25-1.54c-0.1-0.229-1.292,0.068-2.293,0.462c0.041-0.065,0.083-0.134,0.125-0.206    c0.798-1.348,1.597-3.305,1.269-3.499c-0.281-0.167-1.297,1.013-2.085,2.2c-0.03-1.887-0.397-4.239-0.846-4.239    c-0.448,0-0.815,2.353-0.846,4.239c-0.788-1.188-1.804-2.367-2.085-2.2c-0.329,0.194,0.471,2.151,1.269,3.499    c0.042,0.072,0.084,0.141,0.125,0.206c-1.001-0.394-2.194-0.688-2.294-0.462c-0.112,0.256,1.2,1.079,2.25,1.54    c0.098,0.043,0.19,0.081,0.276,0.114c-0.542,0.192-1.07,0.457-1.034,0.582c0.044,0.156,0.941,0.043,1.582-0.139    c0.207-0.058,0.362-0.115,0.482-0.173v0.627c-1.481,0.226-2.725,0.774-3.559,1.466c-1.211-1.223-3.503-2.144-6.133-2.144    c-0.262,0-0.531,0.009-0.786,0.026l-0.01-0.002v-1.742c0.2,0.096,0.455,0.191,0.799,0.289c1.063,0.299,2.545,0.488,2.618,0.229    c0.059-0.209-0.814-0.647-1.713-0.966c0.144-0.057,0.297-0.119,0.459-0.189c1.743-0.765,3.919-2.13,3.733-2.555    c-0.166-0.378-2.143,0.115-3.804,0.766c0.068-0.107,0.137-0.222,0.208-0.341c1.323-2.233,2.649-5.481,2.104-5.804    c-0.466-0.275-2.152,1.679-3.458,3.648c-0.05-3.127-0.66-7.03-1.403-7.03c-0.744,0-1.353,3.901-1.403,7.03    c-1.306-1.97-2.992-3.926-3.458-3.648c-0.544,0.322,0.781,3.568,2.104,5.804c0.071,0.119,0.14,0.232,0.207,0.341    c-1.661-0.65-3.638-1.144-3.804-0.766c-0.186,0.425,1.99,1.79,3.732,2.555c0.162,0.07,0.315,0.135,0.458,0.19    c-0.898,0.317-1.774,0.756-1.715,0.965c0.073,0.259,1.557,0.069,2.619-0.229c0.344-0.098,0.596-0.193,0.796-0.289    c0,0,0,1.812,0.007,1.845c-3.066,0.461-5.342,2.112-5.342,3.81c0,2.002,24.327,2.002,24.327,0    C24.892,36.652,22.153,35.281,18.775,35.281z"/></g><g transform="matrix(1.3534241914749146 0 0 1.3534241914749146 239.9999990087225 250)" id="L1_5"><path d="M27.376,11.801H17.083c-3.71,0-6.796,2.866-6.796,6.563v23.271c0,1.412,1.226,2.697,2.642,2.697h18.602    c1.416,0,2.515-1.285,2.515-2.697v-23.27C34.044,14.667,31.086,11.801,27.376,11.801z M12.722,20.847    c-0.546,0-0.988-0.443-0.988-0.989c0-5.082,3.583-6.54,5.477-6.6c0.57-0.033,1.002,0.411,1.02,0.956    c0.018,0.544-0.407,1-0.951,1.021c-0.371,0.017-3.569,0.295-3.569,4.624C13.709,20.404,13.268,20.847,12.722,20.847z     M31.134,37.41c0,1.172-0.949,2.123-2.123,2.123H15.319c-1.172,0-2.123-0.951-2.123-2.123V24.859c0-1.172,0.951-2.123,2.123-2.123    h13.692c1.172,0,2.123,0.951,2.123,2.123V37.41z"/><path d="M15.501,8.851H28.83c1.783,0,3.229-1.446,3.229-3.229V3.229C32.058,1.445,30.613,0,28.83,0H15.501    c-1.784,0-3.229,1.446-3.229,3.229v2.393C12.272,7.405,13.718,8.851,15.501,8.851z"/><path d="M27.972,32.682c-0.15-0.346-1.957,0.104-3.476,0.699c0.062-0.099,0.125-0.203,0.188-0.312    c1.209-2.041,2.422-5.008,1.924-5.303c-0.426-0.252-1.967,1.534-3.16,3.334c-0.047-2.858-0.604-6.425-1.283-6.425    c-0.68,0-1.236,3.566-1.282,6.425c-1.193-1.801-2.734-3.586-3.16-3.334c-0.498,0.295,0.714,3.262,1.923,5.303    c0.064,0.108,0.127,0.213,0.189,0.312c-1.518-0.595-3.325-1.045-3.477-0.699c-0.17,0.387,1.818,1.635,3.411,2.332    c0.148,0.065,0.288,0.123,0.419,0.174c-0.821,0.291-1.621,0.691-1.567,0.883c0.067,0.236,1.418,0.062,2.39-0.209    c0.314-0.09,0.547-0.178,0.723-0.264v1.592c0,0.238,0.194,0.432,0.433,0.432c0.238,0,0.434-0.193,0.434-0.432v-1.592    c0.176,0.086,0.408,0.174,0.723,0.264c0.971,0.272,2.322,0.447,2.388,0.209c0.054-0.191-0.746-0.592-1.567-0.883    c0.131-0.051,0.271-0.108,0.42-0.174C26.154,34.316,28.142,33.068,27.972,32.682z"/></g><path d="M38.923,7.914H5.487C2.451,7.914,0,10.382,0,13.418v17.566c0,3.037,2.451,5.504,5.487,5.504h33.436   c3.036,0,5.479-2.467,5.479-5.504V13.418C44.402,10.381,41.958,7.914,38.923,7.914z M29.16,20.994   c0.135-0.305,1.73,0.093,3.072,0.619c-0.056-0.088-0.111-0.179-0.168-0.275c-1.068-1.804-2.139-4.425-1.699-4.686   c0.377-0.223,1.738,1.355,2.793,2.946c0.041-2.526,0.531-5.677,1.133-5.677c0.601,0,1.093,3.151,1.133,5.677   c1.055-1.591,2.416-3.169,2.792-2.946c0.44,0.261-0.63,2.881-1.699,4.686c-0.057,0.096-0.112,0.188-0.167,0.275   c1.342-0.525,2.938-0.924,3.072-0.619c0.15,0.343-1.605,1.445-3.014,2.063c-0.131,0.057-0.254,0.107-0.371,0.153   c0.727,0.257,1.434,0.61,1.386,0.778c-0.06,0.209-1.257,0.057-2.115-0.186c-0.278-0.078-0.501-0.156-0.643-0.232v1.406   c0,0.211-0.179,0.381-0.39,0.381s-0.391-0.17-0.391-0.381V23.57c-0.143,0.076-0.35,0.154-0.627,0.232   c-0.857,0.242-2.046,0.395-2.105,0.186c-0.047-0.168,0.664-0.521,1.389-0.778c-0.116-0.045-0.238-0.097-0.369-0.153   C30.766,22.44,29.01,21.337,29.16,20.994z M18.093,16.618c0-0.839,0.695-1.516,1.535-1.516h5.153c0.84,0,1.526,0.677,1.526,1.516   v0.031c0,0.84-0.688,1.533-1.526,1.533h-5.153c-0.84,0-1.535-0.693-1.535-1.533V16.618z M18.093,22.252   c0-0.839,0.695-1.52,1.535-1.52h5.153c0.84,0,1.526,0.68,1.526,1.52v0.031c0,0.84-0.688,1.53-1.526,1.53h-5.153   c-0.84,0-1.535-0.688-1.535-1.53V22.252z M10.291,13.843c2.021,0,3.66,1.639,3.66,3.66s-1.639,3.659-3.66,3.659   s-3.66-1.638-3.66-3.659C6.632,15.482,8.27,13.843,10.291,13.843z M15.792,28.516c0,1.129-0.909,2.061-2.038,2.061H6.827   c-1.128,0-2.047-0.932-2.047-2.061v-2.818c0-1.889,1.535-3.407,3.423-3.407h4.175c1.889,0,3.414,1.519,3.414,3.407V28.516z    M39.621,27.917c0,0.84-0.668,1.526-1.508,1.526H19.628c-0.84,0-1.535-0.687-1.535-1.526v-0.031c0-0.84,0.695-1.524,1.535-1.524   h18.485c0.84,0,1.508,0.685,1.508,1.524V27.917z" transform="matrix(1.3512904644012451 0 0 1.3512904644012451 7 -1.0000014433339288)" id="L1_6"/><path d="M43.203,28.166c-0.533-1.214-6.891,0.37-12.23,2.462c0.218-0.349,0.439-0.714,0.666-1.097   c4.254-7.184,8.518-17.621,6.766-18.658c-1.499-0.888-6.919,5.398-11.117,11.732C27.124,12.546,25.166,0,22.774,0   s-4.35,12.546-4.512,22.605C14.063,16.271,8.644,9.985,7.144,10.873C5.393,11.91,9.656,22.348,13.91,29.531   c0.227,0.383,0.448,0.748,0.666,1.097c-5.34-2.093-11.698-3.677-12.23-2.462c-0.599,1.365,6.397,5.754,11.999,8.211   c0.521,0.229,1.012,0.432,1.474,0.613c-2.889,1.022-5.704,2.431-5.514,3.104c0.235,0.833,4.99,0.225,8.406-0.738   c1.105-0.312,1.926-0.621,2.545-0.927v5.599c0,0.841,0.684,1.521,1.524,1.521c0.84,0,1.524-0.681,1.524-1.521v-5.6   c0.618,0.307,1.434,0.616,2.54,0.928c3.416,0.961,8.168,1.571,8.402,0.738c0.189-0.672-2.625-2.08-5.516-3.104   c0.462-0.182,0.952-0.385,1.474-0.613C36.806,33.92,43.802,29.531,43.203,28.166z" transform="matrix(1.3172627687454224 0 0 1.3172627687454224 123.00000042209649 3)" id="L1_7"/><g transform="matrix(1.3128241300582886 0 0 1.3128241300582886 111 81.00000176282538)"><circle cx="31" cy="9" r="4"/><path d="M42.694,33.609h-2.243c0.935-0.762,1.342-2.041,0.973-3.232l-4.147-13.383c-0.491-1.587-2.178-2.477-3.764-1.985    c-0.496,0.154-0.887,0.462-1.262,0.77c-0.084,0.069-9.72,8.311-9.826,8.452l-1.157-1.647c0.173-0.024,0.388-0.075,0.664-0.167    c0.852-0.283,1.935-0.83,1.866-1.038c-0.056-0.168-0.846-0.063-1.597,0.132c0.071-0.103,0.145-0.215,0.222-0.337    c0.825-1.31,1.667-3.223,1.349-3.424c-0.284-0.179-1.391,1.055-2.213,2.252c-0.004-0.104-0.009-0.212-0.016-0.324    c-0.128-2.109-0.717-4.902-1.231-4.871c-0.44,0.027-0.684,2.114-0.664,4.037c-1.462-2.085-3.654-4.436-4.155-4.096    c-0.501,0.339,0.87,3.247,2.264,5.377c-1.779-0.731-3.808-1.279-3.996-0.88c-0.22,0.466,2.155,2.048,4.067,2.95    c0.102,0.048,0.2,0.093,0.295,0.135c-1.416,0.32-2.973,0.89-2.913,1.221c0.068,0.371,2.158,0.297,3.68,0.018    c0.142-0.027,0.273-0.054,0.396-0.082c-0.46,0.625-0.85,1.319-0.715,1.433c0.167,0.142,1.078-0.662,1.657-1.348    c0.188-0.223,0.315-0.405,0.402-0.557l1.398,1.991c-0.243,0.793-0.088,1.688,0.491,2.366c0.496,0.58,1.199,0.877,1.906,0.877    c0.577,0,1.156-0.198,1.628-0.603c1.626-1.391,6.505-5.564,6.505-5.564l2.366,7.631c0,0-5.646,2.847-5.728,2.898    c-1.439,0.905-2.093,2.617-1.623,4.252c0.47,1.637,1.928,2.748,3.639,2.748h11.482c1.66,0,3.008-1.341,3.008-3.002    C45.702,34.951,44.354,33.609,42.694,33.609z"/><path d="M18.775,35.281c-0.308,0-0.625,0.015-0.905,0.041v-0.556c0.12,0.058,0.27,0.115,0.477,0.173    c0.641,0.182,1.532,0.295,1.576,0.139c0.036-0.125-0.492-0.39-1.034-0.582c0.086-0.033,0.179-0.071,0.276-0.114    c1.05-0.461,2.363-1.284,2.25-1.54c-0.1-0.229-1.292,0.068-2.293,0.462c0.041-0.065,0.083-0.134,0.125-0.206    c0.798-1.348,1.597-3.305,1.269-3.499c-0.281-0.167-1.297,1.013-2.085,2.2c-0.03-1.887-0.397-4.239-0.846-4.239    c-0.448,0-0.815,2.353-0.846,4.239c-0.788-1.188-1.804-2.367-2.085-2.2c-0.329,0.194,0.471,2.151,1.269,3.499    c0.042,0.072,0.084,0.141,0.125,0.206c-1.001-0.394-2.194-0.688-2.294-0.462c-0.112,0.256,1.2,1.079,2.25,1.54    c0.098,0.043,0.19,0.081,0.276,0.114c-0.542,0.192-1.07,0.457-1.034,0.582c0.044,0.156,0.941,0.043,1.582-0.139    c0.207-0.058,0.362-0.115,0.482-0.173v0.627c-1.481,0.226-2.725,0.774-3.559,1.466c-1.211-1.223-3.503-2.144-6.133-2.144    c-0.262,0-0.531,0.009-0.786,0.026l-0.01-0.002v-1.742c0.2,0.096,0.455,0.191,0.799,0.289c1.063,0.299,2.545,0.488,2.618,0.229    c0.059-0.209-0.814-0.647-1.713-0.966c0.144-0.057,0.297-0.119,0.459-0.189c1.743-0.765,3.919-2.13,3.733-2.555    c-0.166-0.378-2.143,0.115-3.804,0.766c0.068-0.107,0.137-0.222,0.208-0.341c1.323-2.233,2.649-5.481,2.104-5.804    c-0.466-0.275-2.152,1.679-3.458,3.648c-0.05-3.127-0.66-7.03-1.403-7.03c-0.744,0-1.353,3.901-1.403,7.03    c-1.306-1.97-2.992-3.926-3.458-3.648c-0.544,0.322,0.781,3.568,2.104,5.804c0.071,0.119,0.14,0.232,0.207,0.341    c-1.661-0.65-3.638-1.144-3.804-0.766c-0.186,0.425,1.99,1.79,3.732,2.555c0.162,0.07,0.315,0.135,0.458,0.19    c-0.898,0.317-1.774,0.756-1.715,0.965c0.073,0.259,1.557,0.069,2.619-0.229c0.344-0.098,0.596-0.193,0.796-0.289    c0,0,0,1.812,0.007,1.845c-3.066,0.461-5.342,2.112-5.342,3.81c0,2.002,24.327,2.002,24.327,0    C24.892,36.652,22.153,35.281,18.775,35.281z"/></g><path d="M43.203,28.166c-0.533-1.214-6.891,0.37-12.23,2.462c0.218-0.349,0.439-0.714,0.666-1.097   c4.254-7.184,8.518-17.621,6.766-18.658c-1.499-0.888-6.919,5.398-11.117,11.732C27.124,12.546,25.166,0,22.774,0   s-4.35,12.546-4.512,22.605C14.063,16.271,8.644,9.985,7.144,10.873C5.393,11.91,9.656,22.348,13.91,29.531   c0.227,0.383,0.448,0.748,0.666,1.097c-5.34-2.093-11.698-3.677-12.23-2.462c-0.599,1.365,6.397,5.754,11.999,8.211   c0.521,0.229,1.012,0.432,1.474,0.613c-2.889,1.022-5.704,2.431-5.514,3.104c0.235,0.833,4.99,0.225,8.406-0.738   c1.105-0.312,1.926-0.621,2.545-0.927v5.599c0,0.841,0.684,1.521,1.524,1.521c0.84,0,1.524-0.681,1.524-1.521v-5.6   c0.618,0.307,1.434,0.616,2.54,0.928c3.416,0.961,8.168,1.571,8.402,0.738c0.189-0.672-2.625-2.08-5.516-3.104   c0.462-0.182,0.952-0.385,1.474-0.613C36.806,33.92,43.802,29.531,43.203,28.166z" transform="matrix(1.3172627687454224 0 0 1.3172627687454224 219.0000009848918 67)"/><g transform="matrix(1.3534241914749146 0 0 1.3534241914749146 -16.000001115187445 72)"><path d="M27.376,11.801H17.083c-3.71,0-6.796,2.866-6.796,6.563v23.271c0,1.412,1.226,2.697,2.642,2.697h18.602    c1.416,0,2.515-1.285,2.515-2.697v-23.27C34.044,14.667,31.086,11.801,27.376,11.801z M12.722,20.847    c-0.546,0-0.988-0.443-0.988-0.989c0-5.082,3.583-6.54,5.477-6.6c0.57-0.033,1.002,0.411,1.02,0.956    c0.018,0.544-0.407,1-0.951,1.021c-0.371,0.017-3.569,0.295-3.569,4.624C13.709,20.404,13.268,20.847,12.722,20.847z     M31.134,37.41c0,1.172-0.949,2.123-2.123,2.123H15.319c-1.172,0-2.123-0.951-2.123-2.123V24.859c0-1.172,0.951-2.123,2.123-2.123    h13.692c1.172,0,2.123,0.951,2.123,2.123V37.41z"/><path d="M15.501,8.851H28.83c1.783,0,3.229-1.446,3.229-3.229V3.229C32.058,1.445,30.613,0,28.83,0H15.501    c-1.784,0-3.229,1.446-3.229,3.229v2.393C12.272,7.405,13.718,8.851,15.501,8.851z"/><path d="M27.972,32.682c-0.15-0.346-1.957,0.104-3.476,0.699c0.062-0.099,0.125-0.203,0.188-0.312    c1.209-2.041,2.422-5.008,1.924-5.303c-0.426-0.252-1.967,1.534-3.16,3.334c-0.047-2.858-0.604-6.425-1.283-6.425    c-0.68,0-1.236,3.566-1.282,6.425c-1.193-1.801-2.734-3.586-3.16-3.334c-0.498,0.295,0.714,3.262,1.923,5.303    c0.064,0.108,0.127,0.213,0.189,0.312c-1.518-0.595-3.325-1.045-3.477-0.699c-0.17,0.387,1.818,1.635,3.411,2.332    c0.148,0.065,0.288,0.123,0.419,0.174c-0.821,0.291-1.621,0.691-1.567,0.883c0.067,0.236,1.418,0.062,2.39-0.209    c0.314-0.09,0.547-0.178,0.723-0.264v1.592c0,0.238,0.194,0.432,0.433,0.432c0.238,0,0.434-0.193,0.434-0.432v-1.592    c0.176,0.086,0.408,0.174,0.723,0.264c0.971,0.272,2.322,0.447,2.388,0.209c0.054-0.191-0.746-0.592-1.567-0.883    c0.131-0.051,0.271-0.108,0.42-0.174C26.154,34.316,28.142,33.068,27.972,32.682z"/></g><path d="M38.923,7.914H5.487C2.451,7.914,0,10.382,0,13.418v17.566c0,3.037,2.451,5.504,5.487,5.504h33.436   c3.036,0,5.479-2.467,5.479-5.504V13.418C44.402,10.381,41.958,7.914,38.923,7.914z M29.16,20.994   c0.135-0.305,1.73,0.093,3.072,0.619c-0.056-0.088-0.111-0.179-0.168-0.275c-1.068-1.804-2.139-4.425-1.699-4.686   c0.377-0.223,1.738,1.355,2.793,2.946c0.041-2.526,0.531-5.677,1.133-5.677c0.601,0,1.093,3.151,1.133,5.677   c1.055-1.591,2.416-3.169,2.792-2.946c0.44,0.261-0.63,2.881-1.699,4.686c-0.057,0.096-0.112,0.188-0.167,0.275   c1.342-0.525,2.938-0.924,3.072-0.619c0.15,0.343-1.605,1.445-3.014,2.063c-0.131,0.057-0.254,0.107-0.371,0.153   c0.727,0.257,1.434,0.61,1.386,0.778c-0.06,0.209-1.257,0.057-2.115-0.186c-0.278-0.078-0.501-0.156-0.643-0.232v1.406   c0,0.211-0.179,0.381-0.39,0.381s-0.391-0.17-0.391-0.381V23.57c-0.143,0.076-0.35,0.154-0.627,0.232   c-0.857,0.242-2.046,0.395-2.105,0.186c-0.047-0.168,0.664-0.521,1.389-0.778c-0.116-0.045-0.238-0.097-0.369-0.153   C30.766,22.44,29.01,21.337,29.16,20.994z M18.093,16.618c0-0.839,0.695-1.516,1.535-1.516h5.153c0.84,0,1.526,0.677,1.526,1.516   v0.031c0,0.84-0.688,1.533-1.526,1.533h-5.153c-0.84,0-1.535-0.693-1.535-1.533V16.618z M18.093,22.252   c0-0.839,0.695-1.52,1.535-1.52h5.153c0.84,0,1.526,0.68,1.526,1.52v0.031c0,0.84-0.688,1.53-1.526,1.53h-5.153   c-0.84,0-1.535-0.688-1.535-1.53V22.252z M10.291,13.843c2.021,0,3.66,1.639,3.66,3.66s-1.639,3.659-3.66,3.659   s-3.66-1.638-3.66-3.659C6.632,15.482,8.27,13.843,10.291,13.843z M15.792,28.516c0,1.129-0.909,2.061-2.038,2.061H6.827   c-1.128,0-2.047-0.932-2.047-2.061v-2.818c0-1.889,1.535-3.407,3.423-3.407h4.175c1.889,0,3.414,1.519,3.414,3.407V28.516z    M39.621,27.917c0,0.84-0.668,1.526-1.508,1.526H19.628c-0.84,0-1.535-0.687-1.535-1.526v-0.031c0-0.84,0.695-1.524,1.535-1.524   h18.485c0.84,0,1.508,0.685,1.508,1.524V27.917z" transform="matrix(1.3512904644012451 0 0 1.3512904644012451 106 152.99999855666601)"/><path d="M43.203,28.166c-0.533-1.214-6.891,0.37-12.23,2.462c0.218-0.349,0.439-0.714,0.666-1.097   c4.254-7.184,8.518-17.621,6.766-18.658c-1.499-0.888-6.919,5.398-11.117,11.732C27.124,12.546,25.166,0,22.774,0   s-4.35,12.546-4.512,22.605C14.063,16.271,8.644,9.985,7.144,10.873C5.393,11.91,9.656,22.348,13.91,29.531   c0.227,0.383,0.448,0.748,0.666,1.097c-5.34-2.093-11.698-3.677-12.23-2.462c-0.599,1.365,6.397,5.754,11.999,8.211   c0.521,0.229,1.012,0.432,1.474,0.613c-2.889,1.022-5.704,2.431-5.514,3.104c0.235,0.833,4.99,0.225,8.406-0.738   c1.105-0.312,1.926-0.621,2.545-0.927v5.599c0,0.841,0.684,1.521,1.524,1.521c0.84,0,1.524-0.681,1.524-1.521v-5.6   c0.618,0.307,1.434,0.616,2.54,0.928c3.416,0.961,8.168,1.571,8.402,0.738c0.189-0.672-2.625-2.08-5.516-3.104   c0.462-0.182,0.952-0.385,1.474-0.613C36.806,33.92,43.802,29.531,43.203,28.166z" transform="matrix(1.3172627687454224 0 0 1.3172627687454224 309.0000014069883 133)"/><g transform="matrix(1.3128241300582886 0 0 1.3128241300582886 199 128.0000030849444)"><circle cx="31" cy="9" r="4"/><path d="M42.694,33.609h-2.243c0.935-0.762,1.342-2.041,0.973-3.232l-4.147-13.383c-0.491-1.587-2.178-2.477-3.764-1.985    c-0.496,0.154-0.887,0.462-1.262,0.77c-0.084,0.069-9.72,8.311-9.826,8.452l-1.157-1.647c0.173-0.024,0.388-0.075,0.664-0.167    c0.852-0.283,1.935-0.83,1.866-1.038c-0.056-0.168-0.846-0.063-1.597,0.132c0.071-0.103,0.145-0.215,0.222-0.337    c0.825-1.31,1.667-3.223,1.349-3.424c-0.284-0.179-1.391,1.055-2.213,2.252c-0.004-0.104-0.009-0.212-0.016-0.324    c-0.128-2.109-0.717-4.902-1.231-4.871c-0.44,0.027-0.684,2.114-0.664,4.037c-1.462-2.085-3.654-4.436-4.155-4.096    c-0.501,0.339,0.87,3.247,2.264,5.377c-1.779-0.731-3.808-1.279-3.996-0.88c-0.22,0.466,2.155,2.048,4.067,2.95    c0.102,0.048,0.2,0.093,0.295,0.135c-1.416,0.32-2.973,0.89-2.913,1.221c0.068,0.371,2.158,0.297,3.68,0.018    c0.142-0.027,0.273-0.054,0.396-0.082c-0.46,0.625-0.85,1.319-0.715,1.433c0.167,0.142,1.078-0.662,1.657-1.348    c0.188-0.223,0.315-0.405,0.402-0.557l1.398,1.991c-0.243,0.793-0.088,1.688,0.491,2.366c0.496,0.58,1.199,0.877,1.906,0.877    c0.577,0,1.156-0.198,1.628-0.603c1.626-1.391,6.505-5.564,6.505-5.564l2.366,7.631c0,0-5.646,2.847-5.728,2.898    c-1.439,0.905-2.093,2.617-1.623,4.252c0.47,1.637,1.928,2.748,3.639,2.748h11.482c1.66,0,3.008-1.341,3.008-3.002    C45.702,34.951,44.354,33.609,42.694,33.609z"/><path d="M18.775,35.281c-0.308,0-0.625,0.015-0.905,0.041v-0.556c0.12,0.058,0.27,0.115,0.477,0.173    c0.641,0.182,1.532,0.295,1.576,0.139c0.036-0.125-0.492-0.39-1.034-0.582c0.086-0.033,0.179-0.071,0.276-0.114    c1.05-0.461,2.363-1.284,2.25-1.54c-0.1-0.229-1.292,0.068-2.293,0.462c0.041-0.065,0.083-0.134,0.125-0.206    c0.798-1.348,1.597-3.305,1.269-3.499c-0.281-0.167-1.297,1.013-2.085,2.2c-0.03-1.887-0.397-4.239-0.846-4.239    c-0.448,0-0.815,2.353-0.846,4.239c-0.788-1.188-1.804-2.367-2.085-2.2c-0.329,0.194,0.471,2.151,1.269,3.499    c0.042,0.072,0.084,0.141,0.125,0.206c-1.001-0.394-2.194-0.688-2.294-0.462c-0.112,0.256,1.2,1.079,2.25,1.54    c0.098,0.043,0.19,0.081,0.276,0.114c-0.542,0.192-1.07,0.457-1.034,0.582c0.044,0.156,0.941,0.043,1.582-0.139    c0.207-0.058,0.362-0.115,0.482-0.173v0.627c-1.481,0.226-2.725,0.774-3.559,1.466c-1.211-1.223-3.503-2.144-6.133-2.144    c-0.262,0-0.531,0.009-0.786,0.026l-0.01-0.002v-1.742c0.2,0.096,0.455,0.191,0.799,0.289c1.063,0.299,2.545,0.488,2.618,0.229    c0.059-0.209-0.814-0.647-1.713-0.966c0.144-0.057,0.297-0.119,0.459-0.189c1.743-0.765,3.919-2.13,3.733-2.555    c-0.166-0.378-2.143,0.115-3.804,0.766c0.068-0.107,0.137-0.222,0.208-0.341c1.323-2.233,2.649-5.481,2.104-5.804    c-0.466-0.275-2.152,1.679-3.458,3.648c-0.05-3.127-0.66-7.03-1.403-7.03c-0.744,0-1.353,3.901-1.403,7.03    c-1.306-1.97-2.992-3.926-3.458-3.648c-0.544,0.322,0.781,3.568,2.104,5.804c0.071,0.119,0.14,0.232,0.207,0.341    c-1.661-0.65-3.638-1.144-3.804-0.766c-0.186,0.425,1.99,1.79,3.732,2.555c0.162,0.07,0.315,0.135,0.458,0.19    c-0.898,0.317-1.774,0.756-1.715,0.965c0.073,0.259,1.557,0.069,2.619-0.229c0.344-0.098,0.596-0.193,0.796-0.289    c0,0,0,1.812,0.007,1.845c-3.066,0.461-5.342,2.112-5.342,3.81c0,2.002,24.327,2.002,24.327,0    C24.892,36.652,22.153,35.281,18.775,35.281z"/></g></defs><g fi:class="KUsePattern"><pattern id="pattern_L1_1" width="350" height="350" patternUnits="userSpaceOnUse"><use xlink:href="#L1_1" x="-350" y="-350"/><use xlink:href="#L1_1" x="0" y="-350"/><use xlink:href="#L1_1" x="350" y="-350"/><use xlink:href="#L1_1" x="-350" y="0"/><use xlink:href="#L1_1" x="0" y="0"/><use xlink:href="#L1_1" x="350" y="0"/><use xlink:href="#L1_1" x="-350" y="350"/><use xlink:href="#L1_1" x="0" y="350"/><use xlink:href="#L1_1" x="350" y="350"/></pattern><rect x="0" y="0" width="100%" height="100%" fill="url(#pattern_L1_1)"/></g><g fi:class="KUsePattern"><pattern id="pattern_L1_2" width="350" height="350" patternUnits="userSpaceOnUse"><use xlink:href="#L1_2" x="-350" y="-350"/><use xlink:href="#L1_2" x="0" y="-350"/><use xlink:href="#L1_2" x="350" y="-350"/><use xlink:href="#L1_2" x="-350" y="0"/><use xlink:href="#L1_2" x="0" y="0"/><use xlink:href="#L1_2" x="350" y="0"/><use xlink:href="#L1_2" x="-350" y="350"/><use xlink:href="#L1_2" x="0" y="350"/><use xlink:href="#L1_2" x="350" y="350"/></pattern><rect x="0" y="0" width="100%" height="100%" fill="url(#pattern_L1_2)"/></g><g fi:class="KUsePattern"><pattern id="pattern_L1_3" width="350" height="350" patternUnits="userSpaceOnUse"><use xlink:href="#L1_3" x="-350" y="-350"/><use xlink:href="#L1_3" x="0" y="-350"/><use xlink:href="#L1_3" x="350" y="-350"/><use xlink:href="#L1_3" x="-350" y="0"/><use xlink:href="#L1_3" x="0" y="0"/><use xlink:href="#L1_3" x="350" y="0"/><use xlink:href="#L1_3" x="-350" y="350"/><use xlink:href="#L1_3" x="0" y="350"/><use xlink:href="#L1_3" x="350" y="350"/></pattern><rect x="0" y="0" width="100%" height="100%" fill="url(#pattern_L1_3)"/></g><g fi:class="KUsePattern"><pattern id="pattern_L1_5" width="350" height="350" patternUnits="userSpaceOnUse"><use xlink:href="#L1_5" x="-350" y="-350"/><use xlink:href="#L1_5" x="0" y="-350"/><use xlink:href="#L1_5" x="350" y="-350"/><use xlink:href="#L1_5" x="-350" y="0"/><use xlink:href="#L1_5" x="0" y="0"/><use xlink:href="#L1_5" x="350" y="0"/><use xlink:href="#L1_5" x="-350" y="350"/><use xlink:href="#L1_5" x="0" y="350"/><use xlink:href="#L1_5" x="350" y="350"/></pattern><rect x="0" y="0" width="100%" height="100%" fill="url(#pattern_L1_5)"/></g><g fi:class="KUsePattern"><pattern id="pattern_L1_6" width="350" height="350" patternUnits="userSpaceOnUse"><use xlink:href="#L1_6" x="-350" y="-350"/><use xlink:href="#L1_6" x="0" y="-350"/><use xlink:href="#L1_6" x="350" y="-350"/><use xlink:href="#L1_6" x="-350" y="0"/><use xlink:href="#L1_6" x="0" y="0"/><use xlink:href="#L1_6" x="350" y="0"/><use xlink:href="#L1_6" x="-350" y="350"/><use xlink:href="#L1_6" x="0" y="350"/><use xlink:href="#L1_6" x="350" y="350"/></pattern><rect x="0" y="0" width="100%" height="100%" fill="url(#pattern_L1_6)"/></g><g fi:class="KUsePattern"><pattern id="pattern_L1_7" width="350" height="350" patternUnits="userSpaceOnUse"><use xlink:href="#L1_7" x="-350" y="-350"/><use xlink:href="#L1_7" x="0" y="-350"/><use xlink:href="#L1_7" x="350" y="-350"/><use xlink:href="#L1_7" x="-350" y="0"/><use xlink:href="#L1_7" x="0" y="0"/><use xlink:href="#L1_7" x="350" y="0"/><use xlink:href="#L1_7" x="-350" y="350"/><use xlink:href="#L1_7" x="0" y="350"/><use xlink:href="#L1_7" x="350" y="350"/></pattern><rect x="0" y="0" width="100%" height="100%" fill="url(#pattern_L1_7)"/></g><g fi:class="KUsePattern" transform="matrix(1 0 0 1 20 20)"><pattern id="pattern_UNKNOWN" width="350" height="350" patternUnits="userSpaceOnUse"><use xlink:href="#UNKNOWN" x="-350" y="-350"/><use xlink:href="#UNKNOWN" x="0" y="-350"/><use xlink:href="#UNKNOWN" x="350" y="-350"/><use xlink:href="#UNKNOWN" x="-350" y="0"/><use xlink:href="#UNKNOWN" x="0" y="0"/><use xlink:href="#UNKNOWN" x="350" y="0"/><use xlink:href="#UNKNOWN" x="-350" y="350"/><use xlink:href="#UNKNOWN" x="0" y="350"/><use xlink:href="#UNKNOWN" x="350" y="350"/></pattern><rect x="0" y="0" width="100%" height="100%" fill="url(#pattern_UNKNOWN)"/></g><g fi:class="KUsePattern" transform="matrix(1 0 0 1 20 20)"><pattern id="pattern_UNKNOWN" width="350" height="350" patternUnits="userSpaceOnUse"><use xlink:href="#UNKNOWN" x="-350" y="-350"/><use xlink:href="#UNKNOWN" x="0" y="-350"/><use xlink:href="#UNKNOWN" x="350" y="-350"/><use xlink:href="#UNKNOWN" x="-350" y="0"/><use xlink:href="#UNKNOWN" x="0" y="0"/><use xlink:href="#UNKNOWN" x="350" y="0"/><use xlink:href="#UNKNOWN" x="-350" y="350"/><use xlink:href="#UNKNOWN" x="0" y="350"/><use xlink:href="#UNKNOWN" x="350" y="350"/></pattern><rect x="0" y="0" width="100%" height="100%" fill="url(#pattern_UNKNOWN)"/></g><g fi:class="KUsePattern" transform="matrix(1 0 0 1 20 20)"><pattern id="pattern_UNKNOWN" width="350" height="350" patternUnits="userSpaceOnUse"><use xlink:href="#UNKNOWN" x="-350" y="-350"/><use xlink:href="#UNKNOWN" x="0" y="-350"/><use xlink:href="#UNKNOWN" x="350" y="-350"/><use xlink:href="#UNKNOWN" x="-350" y="0"/><use xlink:href="#UNKNOWN" x="0" y="0"/><use xlink:href="#UNKNOWN" x="350" y="0"/><use xlink:href="#UNKNOWN" x="-350" y="350"/><use xlink:href="#UNKNOWN" x="0" y="350"/><use xlink:href="#UNKNOWN" x="350" y="350"/></pattern><rect x="0" y="0" width="100%" height="100%" fill="url(#pattern_UNKNOWN)"/></g><g fi:class="KUsePattern" transform="matrix(1 0 0 1 20 20)"><pattern id="pattern_UNKNOWN" width="350" height="350" patternUnits="userSpaceOnUse"><use xlink:href="#UNKNOWN" x="-350" y="-350"/><use xlink:href="#UNKNOWN" x="0" y="-350"/><use xlink:href="#UNKNOWN" x="350" y="-350"/><use xlink:href="#UNKNOWN" x="-350" y="0"/><use xlink:href="#UNKNOWN" x="0" y="0"/><use xlink:href="#UNKNOWN" x="350" y="0"/><use xlink:href="#UNKNOWN" x="-350" y="350"/><use xlink:href="#UNKNOWN" x="0" y="350"/><use xlink:href="#UNKNOWN" x="350" y="350"/></pattern><rect x="0" y="0" width="100%" height="100%" fill="url(#pattern_UNKNOWN)"/></g><g fi:class="KUsePattern" transform="matrix(1 0 0 1 40 40)"><pattern id="pattern_UNKNOWN" width="350" height="350" patternUnits="userSpaceOnUse"><use xlink:href="#UNKNOWN" x="-350" y="-350"/><use xlink:href="#UNKNOWN" x="0" y="-350"/><use xlink:href="#UNKNOWN" x="350" y="-350"/><use xlink:href="#UNKNOWN" x="-350" y="0"/><use xlink:href="#UNKNOWN" x="0" y="0"/><use xlink:href="#UNKNOWN" x="350" y="0"/><use xlink:href="#UNKNOWN" x="-350" y="350"/><use xlink:href="#UNKNOWN" x="0" y="350"/><use xlink:href="#UNKNOWN" x="350" y="350"/></pattern><rect x="0" y="0" width="100%" height="100%" fill="url(#pattern_UNKNOWN)"/></g><g fi:class="KUsePattern" transform="matrix(1 0 0 1 40 40)"><pattern id="pattern_UNKNOWN" width="350" height="350" patternUnits="userSpaceOnUse"><use xlink:href="#UNKNOWN" x="-350" y="-350"/><use xlink:href="#UNKNOWN" x="0" y="-350"/><use xlink:href="#UNKNOWN" x="350" y="-350"/><use xlink:href="#UNKNOWN" x="-350" y="0"/><use xlink:href="#UNKNOWN" x="0" y="0"/><use xlink:href="#UNKNOWN" x="350" y="0"/><use xlink:href="#UNKNOWN" x="-350" y="350"/><use xlink:href="#UNKNOWN" x="0" y="350"/><use xlink:href="#UNKNOWN" x="350" y="350"/></pattern><rect x="0" y="0" width="100%" height="100%" fill="url(#pattern_UNKNOWN)"/></g></svg>